<?xml version="1.0" encoding="iso-8859-1"?>
<!-- Generator: Adobe Illustrator 19.0.0, SVG Export Plug-In . SVG Version: 6.00 Build 0)  -->
<svg version="1.1" id="Capa_1" xmlns="http://www.w3.org/2000/svg" xmlns:xlink="http://www.w3.org/1999/xlink" x="0px" y="0px"
	 viewBox="0 0 512.011 512.011" style="enable-background:new 0 0 512.011 512.011;" xml:space="preserve">
<g>
	<path style="fill:#4CAF50;" d="M508.413,312.971c-2.368,6.037-6.08,11.435-10.88,15.787l-0.64,0.64
		c-8.256,7.744-19.179,12.011-30.507,11.947h-61.013c-3.627,0-6.997-1.856-8.96-4.907l-10.24-16.427l-43.093-68.907
		c-1.664-2.432-2.133-5.504-1.28-8.32c0.661-2.901,2.517-5.376,5.12-6.827l96-53.333c5.184-2.731,11.627-0.832,14.507,4.267
		l49.493,88.32C513.106,286.923,513.64,300.811,508.413,312.971z"/>
	<path style="fill:#4CAF50;" d="M278.653,87.264l-8.96,12.587l-47.573,66.347c-2.005,2.837-5.269,4.523-8.747,4.48
		c-1.792-0.021-3.541-0.448-5.12-1.28l-117.333-64c-2.731-1.451-4.672-4.032-5.333-7.04c-0.683-3.051,0.021-6.251,1.92-8.747
		l45.653-60.8c1.813-2.496,3.819-4.843,5.973-7.04c12.843-13.547,30.613-21.397,49.28-21.76c1.003-0.043,2.005,0.043,2.987,0.213
		c22.827,0.683,43.968,12.16,56.96,30.933l30.293,43.947C281.192,78.752,281.192,83.616,278.653,87.264z"/>
	<path style="fill:#4CAF50;" d="M209.96,295.904c-3.243,2.987-8,3.669-11.947,1.707l-33.28-16.64l-19.413,39.04l-7.68,15.36
		c-1.835,3.627-5.547,5.931-9.6,5.973H45.693c-11.435,0.128-22.464-4.224-30.72-12.16l-0.427-0.427
		C9.64,324.256,5.778,318.71,3.24,312.544c-3.264-8.341-4.011-17.472-2.133-26.24c0.832-3.776,2.112-7.424,3.84-10.88l35.413-70.613
		L3.24,167.478c-3.157-2.944-4.096-7.573-2.347-11.52c1.643-3.989,5.504-6.592,9.813-6.613h138.667
		c4.309,0.021,8.171,2.624,9.813,6.613l53.333,128C214.184,288.096,213.16,292.811,209.96,295.904z"/>
</g>
<g>
	<path style="fill:#388E3C;" d="M213.373,330.678v128c0,5.888-4.779,10.667-10.667,10.667h-51.84
		c-24.491,0.064-47.403-12.011-61.227-32.213c-2.987-4.267-5.547-8.107-7.893-11.52l-0.853-0.853c0.213,0-4.053-5.973-8.107-11.947
		c-1.92-2.56-3.413-5.12-4.907-7.04c-5.547-8.107-8.533-12.16-7.253-10.453c-1.067-1.707-2.133-2.987-2.56-3.84l-0.213-0.213
		c-0.853-1.28-1.131-1.707-1.173-1.813l-0.32-0.32l-0.213-0.427c-14.933-21.547-28.8-41.6-41.173-59.52l-0.427-0.427
		c-4.053-5.547-7.68-11.093-11.307-16.213c-3.264-8.341-4.011-17.472-2.133-26.24l28.8,27.52c4.224,4.096,9.899,6.336,15.787,6.187
		h157.013C208.594,320.011,213.373,324.79,213.373,330.678z"/>
	<path style="fill:#388E3C;" d="M447.186,57.398l-53.333,128c-1.643,3.989-5.504,6.592-9.813,6.613
		c-0.64,0.043-1.301-0.043-1.92-0.213l-117.333-21.333c-4.48-0.917-7.936-4.459-8.747-8.96c-0.64-4.608,1.771-9.088,5.973-11.093
		l31.573-15.787l-23.893-34.773l-38.827-56.747c-9.387-13.333-24.661-21.291-40.96-21.333h-50.773
		c10.539-11.157,24.512-18.517,39.68-20.907l9.6-0.64h2.987l137.813-0.213c17.899-0.085,34.645,8.811,44.587,23.68l24.533,37.12
		l34.347-17.067c3.947-1.963,8.704-1.28,11.947,1.707C447.826,48.544,448.85,53.259,447.186,57.398z"/>
	<path style="fill:#388E3C;" d="M508.413,312.971l-10.027,14.507l-0.853,1.28l-0.64,0.64l-74.24,107.733
		c-13.909,20.224-36.907,32.277-61.44,32.213h-19.84v32c-0.043,4.416-2.731,8.384-6.827,10.027c-1.237,0.427-2.539,0.64-3.84,0.64
		c-3.029,0.021-5.931-1.301-7.893-3.627l-85.333-96c-3.392-3.669-3.648-9.237-0.64-13.227l85.333-117.333
		c2.624-3.755,7.36-5.397,11.733-4.053c4.459,1.408,7.488,5.568,7.467,10.24v32h125.013c5.888,0.149,11.563-2.091,15.787-6.187
		l28.8-27.52C512.936,295.243,512.04,304.566,508.413,312.971z"/>
</g>
<path d="M202.706,469.344h-51.733c-24.512,0-47.467-12.011-61.397-32.171L14.738,329.184c-5.504-5.12-9.685-11.563-12.139-18.923
	c-3.84-11.52-2.965-23.851,2.453-34.709l35.328-70.763L3.154,167.563c-3.051-3.072-3.968-7.637-2.304-11.627
	c1.643-3.989,5.547-6.592,9.856-6.592h138.667c4.309,0,8.192,2.603,9.835,6.571l53.333,128c1.728,4.117,0.683,8.853-2.56,11.904
	c-3.264,3.072-8.085,3.712-12.053,1.749l-33.131-16.555l-19.499,38.997h57.408c5.888,0,10.667,4.779,10.667,10.667v128
	C213.373,464.566,208.594,469.344,202.706,469.344z M49.128,341.344l57.984,83.691c9.963,14.4,26.347,22.976,43.861,22.976h41.067
	V341.344h-63.787c-0.171,0-0.299,0-0.448,0H49.128z M30.738,314.784c1.301,1.045,2.688,1.941,4.224,2.688
	c3.307,1.664,7.04,2.539,10.773,2.539h75.712l29.056-58.112c2.645-5.291,9.045-7.403,14.315-4.779l17.024,8.512l-39.573-94.955
	H36.456l24.448,24.448c3.243,3.243,4.053,8.192,2.005,12.309l-38.763,77.653c-2.88,5.781-3.349,12.309-1.301,18.411
	c0.896,2.688,2.219,5.12,3.904,7.296c1.301,0.747,2.475,1.813,3.392,3.115L30.738,314.784z"/>
<path d="M361.298,469.344c-0.043,0-0.107,0-0.149,0h-30.443c-5.888,0-10.667-4.779-10.667-10.667s4.779-10.667,10.667-10.667h30.464
	c0.043,0,0.064,0,0.107,0c17.515,0,33.92-8.576,43.883-22.976l76.8-111.083c3.328-4.885,9.984-6.08,14.827-2.709
	c4.864,3.349,6.059,9.984,2.709,14.827l-76.8,111.104C408.722,457.334,385.789,469.344,361.298,469.344z"/>
<path d="M405.373,341.344c-0.043,0-0.107,0-0.171,0h-74.496c-5.888,0-10.667-4.779-10.667-10.667s4.779-10.667,10.667-10.667h55.424
	l-43.115-69.013c-1.557-2.475-2.027-5.483-1.301-8.32s2.603-5.248,5.141-6.656l96-53.333c5.12-2.859,11.605-1.045,14.507,4.096
	l49.493,88.32c5.653,11.328,6.528,23.637,2.688,35.157c-3.861,11.541-11.968,20.885-22.805,26.283
	c-6.315,3.157-13.312,4.8-20.267,4.8h-60.907C405.501,341.344,405.437,341.344,405.373,341.344z M411.282,320.011h55.189
	c3.669,0,7.381-0.875,10.731-2.539c5.76-2.88,10.048-7.829,12.075-13.952c2.048-6.101,1.579-12.672-1.301-18.411l-44.053-78.592
	l-76.885,42.709L411.282,320.011z"/>
<path d="M384.04,192.011c-0.619,0-1.28-0.043-1.92-0.171l-117.333-21.333c-4.523-0.811-8-4.437-8.661-8.981
	c-0.64-4.544,1.685-9.003,5.781-11.051l31.701-15.851l-24.021-34.987l-47.552,66.581c-3.115,4.395-9.024,5.781-13.781,3.157
	l-117.333-64c-2.709-1.472-4.651-4.075-5.312-7.104c-0.661-3.029,0.043-6.187,1.899-8.661l45.739-60.907
	c15.723-20.949,40.917-30.677,65.237-27.819c1.301-0.555,2.731-0.875,4.224-0.875h126.571c0.021,0,0.064,0,0.085,0
	c17.877,0,34.453,8.875,44.352,23.765l24.661,37.141l34.219-17.109c4.011-2.005,8.768-1.301,12.032,1.749
	c3.264,3.051,4.288,7.787,2.581,11.904l-53.333,128C392.21,189.472,388.285,192.011,384.04,192.011z M300.093,155.232l77.397,14.08
	l38.997-93.611l-17.024,8.512c-4.779,2.347-10.667,0.875-13.675-3.648l-29.867-44.992c-5.909-8.896-15.872-14.229-26.581-14.229
	c-0.021,0-0.021,0-0.043,0H240.36c2.965,2.987,5.653,6.251,8.064,9.749l69.76,101.547c1.749,2.539,2.304,5.717,1.536,8.704
	s-2.816,5.483-5.568,6.869L300.093,155.232z M111.976,92.555l98.219,53.568l46.571-65.195l-25.941-37.76
	c-3.072-4.459-6.784-8.341-11.093-11.563c-21.909-16.427-53.013-11.968-69.419,9.899L111.976,92.555z"/>
<path d="M330.77,512.011c-2.987,0-5.909-1.259-7.979-3.584l-85.333-96c-3.328-3.755-3.605-9.323-0.661-13.355l85.333-117.333
	c2.709-3.755,7.552-5.333,11.925-3.883c4.395,1.429,7.381,5.525,7.381,10.155v42.667c0,5.888-4.779,10.667-10.667,10.667
	s-10.667-4.779-10.667-10.667v-9.856l-60.992,83.861l60.992,68.608v-14.613c0-5.888,4.779-10.667,10.667-10.667
	s10.667,4.779,10.667,10.667v42.667c0,4.437-2.731,8.405-6.869,9.984C333.33,511.776,332.029,512.011,330.77,512.011z"/>
<g>
</g>
<g>
</g>
<g>
</g>
<g>
</g>
<g>
</g>
<g>
</g>
<g>
</g>
<g>
</g>
<g>
</g>
<g>
</g>
<g>
</g>
<g>
</g>
<g>
</g>
<g>
</g>
<g>
</g>
</svg>
